<svg width="32" height="32" viewBox="0 0 32 32" xmlns="http://www.w3.org/2000/svg">
  <!-- Gradient definition -->
  <defs>
    <linearGradient id="omegaGradient" x1="0%" y1="0%" x2="100%" y2="100%">
      <stop offset="0%" style="stop-color:#4f46e5;stop-opacity:1" />
      <stop offset="100%" style="stop-color:#06b6d4;stop-opacity:1" />
    </linearGradient>
  </defs>
  
  <!-- Omega symbol -->
  <path d="M16 4C10.477 4 6 8.477 6 14c0 3.314 1.615 6.251 4.105 8.086L8.5 24.5h3.2l1.05-1.75C13.794 22.91 14.874 23 16 23s2.206-.09 3.25-.25L20.3 24.5h3.2l-1.605-2.414C24.385 20.251 26 17.314 26 14c0-5.523-4.477-10-10-10zm0 3c3.866 0 7 3.134 7 7 0 2.318-1.127 4.37-2.863 5.658L18.5 21h-1.2l1.4-2.333C17.84 18.888 16.941 19 16 19s-1.84-.112-2.7-.333L14.7 21h-1.2l-1.637-1.342C10.127 18.37 9 16.318 9 14c0-3.866 3.134-7 7-7z" fill="url(#omegaGradient)" stroke="none"/>
</svg>
